<?xml version="1.0" standalone="no"?>
<!DOCTYPE svg PUBLIC "-//W3C//DTD SVG 20010904//EN"
 "http://www.w3.org/TR/2001/REC-SVG-20010904/DTD/svg10.dtd">
<svg version="1.0" xmlns="http://www.w3.org/2000/svg"
 width="300.000000pt" height="300.000000pt" viewBox="0 0 300.000000 300.000000"
 preserveAspectRatio="xMidYMid meet">
<metadata>
Created by potrace 1.11, written by Peter Selinger 2001-2013
</metadata>
<g transform="translate(0.000000,300.000000) scale(0.100000,-0.100000)"
fill="#000000" stroke="none">
<path d="M1400 2914 c-41 -25 -322 -188 -625 -363 l-550 -317 0 -734 0 -734
210 -121 c116 -67 398 -230 629 -363 230 -133 422 -242 427 -242 9 0 75 38
494 280 254 147 406 235 627 361 l147 84 0 735 0 735 -147 84 c-221 126 -373
214 -627 361 -436 252 -486 280 -498 279 -6 0 -46 -21 -87 -45z m671 -406
l578 -333 0 -675 0 -675 -579 -333 -579 -333 -463 267 c-255 147 -515 297
-578 334 l-115 66 0 674 0 674 125 72 c69 40 328 189 575 332 248 144 452 261
454 262 2 0 264 -150 582 -332z"/>
<path d="M1150 2320 l0 -110 100 0 100 0 0 -322 -1 -323 -273 -157 c-150 -87
-276 -158 -279 -158 -3 0 -27 38 -53 85 -26 46 -50 83 -53 81 -93 -48 -189
-111 -184 -120 4 -6 80 -137 170 -291 89 -154 164 -280 167 -280 13 0 186 101
186 108 0 4 -21 44 -46 88 -26 45 -43 84 -38 88 19 18 536 311 547 311 17 -1
541 -306 545 -318 1 -5 -18 -44 -43 -87 -25 -42 -45 -80 -45 -83 0 -4 42 -30
93 -58 68 -38 95 -49 103 -40 8 8 277 470 330 567 4 7 -187 122 -191 117 -1
-2 -18 -32 -38 -68 -64 -115 -49 -112 -163 -44 -54 32 -108 64 -119 70 -11 6
-42 23 -70 39 -27 15 -54 31 -60 35 -5 5 -37 23 -70 41 -33 18 -77 43 -97 56
l-38 23 0 320 0 320 100 0 100 0 0 110 0 110 -340 0 -340 0 0 -110z"/>
</g>
</svg>
